HIERARCHY
ROOT Hips
{
  OFFSET 5.84602e-005 68.8428 3.50346
  CHANNELS 6 Xposition Yposition Zposition Zrotation Xrotation Yrotation
  JOINT Spine
  {
    OFFSET 0 8.597 -4.6522
    CHANNELS 3 Zrotation Xrotation Yrotation
    JOINT Spine1
    {
      OFFSET 0 7.8454 0.4098
      CHANNELS 3 Zrotation Xrotation Yrotation
      JOINT Spine2
      {
        OFFSET 0 9.7078 -2.1609
        CHANNELS 3 Zrotation Xrotation Yrotation
        JOINT Neck
        {
          OFFSET 0 21.8761 -0.4549
          CHANNELS 3 Zrotation Xrotation Yrotation
          JOINT Head
          {
            OFFSET 0 12.3537 3.3602
            CHANNELS 3 Zrotation Xrotation Yrotation
            End Site
            {
              OFFSET 0.0001 18.9506 0.5657
            }
          }
        }
        JOINT LeftShoulder
        {
          OFFSET 2.2086 21.1115 7.2329
          CHANNELS 3 Zrotation Xrotation Yrotation
          JOINT LeftArm
          {
            OFFSET 13.1193 3.0282 -4.8998
            CHANNELS 3 Zrotation Xrotation Yrotation
            JOINT LeftForeArm
            {
              OFFSET 27.4081 -0.0973053 -0.2375
              CHANNELS 3 Zrotation Xrotation Yrotation
              JOINT LeftHand
              {
                OFFSET 22.8641 0.0662994 -0.1369
                CHANNELS 3 Zrotation Xrotation Yrotation
                JOINT LeftHandIndex1
                {
                  OFFSET 8.8614 0.775009 2.4612
                  CHANNELS 3 Zrotation Xrotation Yrotation
                  JOINT LeftHandIndex2
                  {
                    OFFSET 3.3146 -0.808304 0.5841
                    CHANNELS 3 Zrotation Xrotation Yrotation
                    JOINT LeftHandIndex3
                    {
                      OFFSET 2.2628 -0.552002 0.3989
                      CHANNELS 3 Zrotation Xrotation Yrotation
                      End Site
                      {
                        OFFSET 1.6102 -0.4807 0.2612
                      }
                    }
                  }
                }
                JOINT LeftHandMiddle1
                {
                  OFFSET 8.9937 0.895004 0.2143
                  CHANNELS 3 Zrotation Xrotation Yrotation
                  JOINT LeftHandMiddle2
                  {
                    OFFSET 4.0984 0.0113983 -0.0242
                    CHANNELS 3 Zrotation Xrotation Yrotation
                    JOINT LeftHandMiddle3
                    {
                      OFFSET 2.2716 0.00689697 -0.0138001
                      CHANNELS 3 Zrotation Xrotation Yrotation
                      End Site
                      {
                        OFFSET 2.0404 -0.1441 0.0027
                      }
                    }
                  }
                }
                JOINT LeftHandRing1
                {
                  OFFSET 8.5234 0.597198 -2.0164
                  CHANNELS 3 Zrotation Xrotation Yrotation
                  JOINT LeftHandRing2
                  {
                    OFFSET 3.7188 -0.188293 -0.2328
                    CHANNELS 3 Zrotation Xrotation Yrotation
                    JOINT LeftHandRing3
                    {
                      OFFSET 2.1191 -0.106598 -0.1332
                      CHANNELS 3 Zrotation Xrotation Yrotation
                      End Site
                      {
                        OFFSET 1.8737 -0.2304 -0.0886
                      }
                    }
                  }
                }
                JOINT LeftHandPinky1
                {
                  OFFSET 7.9094 -0.601089 -3.4825
                  CHANNELS 3 Zrotation Xrotation Yrotation
                  JOINT LeftHandPinky2
                  {
                    OFFSET 2.2874 -0.477005 -0.6314
                    CHANNELS 3 Zrotation Xrotation Yrotation
                    JOINT LeftHandPinky3
                    {
                      OFFSET 1.6774 -0.349396 -0.4633
                      CHANNELS 3 Zrotation Xrotation Yrotation
                      End Site
                      {
                        OFFSET 1.4888 -0.4091 -0.3416
                      }
                    }
                  }
                }
                JOINT LeftHandThumb1
                {
                  OFFSET 1.833 -1.3875 1.3896
                  CHANNELS 3 Zrotation Xrotation Yrotation
                  JOINT LeftHandThumb2
                  {
                    OFFSET 3.4129 -1.121 2.5732
                    CHANNELS 3 Zrotation Xrotation Yrotation
                    JOINT LeftHandThumb3
                    {
                      OFFSET 2.2474 -0.804199 1.6192
                      CHANNELS 3 Zrotation Xrotation Yrotation
                      End Site
                      {
                        OFFSET 1.6527 -0.5689 1.1317
                      }
                    }
                  }
                }
              }
            }
          }
        }
        JOINT RightShoulder
        {
          OFFSET -2.2086 21.1115 7.2329
          CHANNELS 3 Zrotation Xrotation Yrotation
          JOINT RightArm
          {
            OFFSET -13.1216 3.0287 -4.9007
            CHANNELS 3 Zrotation Xrotation Yrotation
            JOINT RightForeArm
            {
              OFFSET -27.4081 -0.0973053 -0.2375
              CHANNELS 3 Zrotation Xrotation Yrotation
              JOINT RightHand
              {
                OFFSET -22.8641 0.0664063 -0.1369
                CHANNELS 3 Zrotation Xrotation Yrotation
                JOINT RightHandIndex1
                {
                  OFFSET -8.8614 0.774994 2.4612
                  CHANNELS 3 Zrotation Xrotation Yrotation
                  JOINT RightHandIndex2
                  {
                    OFFSET -3.3146 -0.808304 0.5841
                    CHANNELS 3 Zrotation Xrotation Yrotation
                    JOINT RightHandIndex3
                    {
                      OFFSET -2.2628 -0.552002 0.3989
                      CHANNELS 3 Zrotation Xrotation Yrotation
                      End Site
                      {
                        OFFSET -1.6102 -0.4807 0.2612
                      }
                    }
                  }
                }
                JOINT RightHandMiddle1
                {
                  OFFSET -8.9937 0.894989 0.2143
                  CHANNELS 3 Zrotation Xrotation Yrotation
                  JOINT RightHandMiddle2
                  {
                    OFFSET -4.0984 0.0113983 -0.0242
                    CHANNELS 3 Zrotation Xrotation Yrotation
                    JOINT RightHandMiddle3
                    {
                      OFFSET -2.2716 0.00691223 -0.0138001
                      CHANNELS 3 Zrotation Xrotation Yrotation
                      End Site
                      {
                        OFFSET -2.0404 -0.1441 0.0027
                      }
                    }
                  }
                }
                JOINT RightHandRing1
                {
                  OFFSET -8.5234 0.597198 -2.0164
                  CHANNELS 3 Zrotation Xrotation Yrotation
                  JOINT RightHandRing2
                  {
                    OFFSET -3.7188 -0.188309 -0.2328
                    CHANNELS 3 Zrotation Xrotation Yrotation
                    JOINT RightHandRing3
                    {
                      OFFSET -2.1191 -0.106598 -0.1332
                      CHANNELS 3 Zrotation Xrotation Yrotation
                      End Site
                      {
                        OFFSET -1.8737 -0.2304 -0.0886
                      }
                    }
                  }
                }
                JOINT RightHandPinky1
                {
                  OFFSET -7.9094 -0.601105 -3.4825
                  CHANNELS 3 Zrotation Xrotation Yrotation
                  JOINT RightHandPinky2
                  {
                    OFFSET -2.2874 -0.477005 -0.6314
                    CHANNELS 3 Zrotation Xrotation Yrotation
                    JOINT RightHandPinky3
                    {
                      OFFSET -1.6774 -0.349396 -0.4633
                      CHANNELS 3 Zrotation Xrotation Yrotation
                      End Site
                      {
                        OFFSET -1.4888 -0.4091 -0.3416
                      }
                    }
                  }
                }
                JOINT RightHandThumb1
                {
                  OFFSET -1.833 -1.38751 1.3896
                  CHANNELS 3 Zrotation Xrotation Yrotation
                  JOINT RightHandThumb2
                  {
                    OFFSET -3.41299 -1.12099 2.5732
                    CHANNELS 3 Zrotation Xrotation Yrotation
                    JOINT RightHandThumb3
                    {
                      OFFSET -2.24741 -0.804108 1.6192
                      CHANNELS 3 Zrotation Xrotation Yrotation
                      End Site
                      {
                        OFFSET -1.6527 -0.5689 1.1317
                      }
                    }
                  }
                }
              }
            }
          }
        }
      }
    }
  }
  JOINT RightUpLeg
  {
    OFFSET -9.1966 3.8861 -0.7581
    CHANNELS 3 Zrotation Xrotation Yrotation
    JOINT RightLeg
    {
      OFFSET -0.7359 -41.0265 0
      CHANNELS 3 Zrotation Xrotation Yrotation
      JOINT RightFoot
      {
        OFFSET 0 -40.2855 0
        CHANNELS 3 Zrotation Xrotation Yrotation
        JOINT RightToeBase
        {
          OFFSET 0 -5.6122 11.7359
          CHANNELS 3 Zrotation Xrotation Yrotation
          End Site
          {
            OFFSET 0 0 7.8731
          }
        }
      }
    }
  }
  JOINT LeftUpLeg
  {
    OFFSET 9.1965 3.8864 -0.7581
    CHANNELS 3 Zrotation Xrotation Yrotation
    JOINT LeftLeg
    {
      OFFSET 0.7359 -41.0268 0
      CHANNELS 3 Zrotation Xrotation Yrotation
      JOINT LeftFoot
      {
        OFFSET 0 -40.2855 0
        CHANNELS 3 Zrotation Xrotation Yrotation
        JOINT LeftToeBase
        {
          OFFSET 0 -5.6122 11.7359
          CHANNELS 3 Zrotation Xrotation Yrotation
          End Site
          {
            OFFSET 0 0 7.8731
          }
        }
      }
    }
  }
}
MOTION
Frames:	5
Frame Time:	0.0333333
5.38424e-005 5.98085 -12.6843 0 3.99975 -0 -3.08501 17.7434 3.52663 -7.99305 35.2076 8.78642 -7.99306 35.2076 8.78643 -0.00408775 -46.0035 16.8997 -0.000393714 18.2891 -31.003 2.30799 -5.32406 -8.85067 61.1736 -46.1339 -53.0923 -1.38035e-006 -7.27328e-006 -8.24665 2.9442 -48.944 2.68973 2.71158e-007 7.63842e-008 1.6678e-007 5.74591e-007 -5.51895e-007 -3.04052e-007 2.87295e-007 -2.75948e-007 -1.52026e-007 2.71158e-007 7.63842e-008 1.6678e-007 -0.0146163 -8.8977e-005 -3.70233e-006 2.87293e-007 -2.75928e-007 -1.52061e-007 2.71158e-007 7.63842e-008 1.6678e-007 -0.0187188 -0.00117167 4.98046e-005 2.8729e-007 -2.75923e-007 -1.52074e-007 2.71158e-007 7.63842e-008 1.6678e-007 -0.0122607 -0.00324649 0.000678415 2.87287e-007 -2.75934e-007 -1.52064e-007 2.71158e-007 7.63842e-008 1.6678e-007 5.74591e-007 -5.51895e-007 -3.04052e-007 2.87295e-007 -2.75948e-007 -1.52026e-007 1.1726e-006 -10.0022 -4.45403e-007 61.284 -17.5701 123.255 -0.951888 20.5671 17.0545 -12.8802 29.873 5.76693 6.36111e-015 4.77083e-015 3.18055e-015 -7.11201e-007 -4.20057e-007 2.0003e-007 3.18055e-015 1.59028e-015 -3.18055e-015 6.36111e-015 4.77083e-015 3.18055e-015 0.0150158 -9.04502e-005 -8.33609e-007 -0 -2.54444e-014 -0 6.36111e-015 4.77083e-015 3.18055e-015 0.0189951 -0.00119326 -5.96349e-005 -3.18055e-015 -6.36111e-015 3.18055e-015 6.36111e-015 4.77083e-015 3.18055e-015 0.0123128 -0.00325816 -0.000672155 -6.36111e-015 -9.54166e-015 -0 6.36111e-015 4.77083e-015 3.18055e-015 -7.11201e-007 -4.20057e-007 2.0003e-007 3.18055e-015 1.59028e-015 -3.18055e-015 -30.4107 -55.8396 -7.80096 179.892 34.7961 172.085 3.36833 60.854 -7.29649 1.80131e-007 2.52611e-007 7.92851e-007 30.4018 -55.8395 7.79257 -179.892 34.7963 -172.085 -3.36858 60.8533 7.29673 3.29886e-006 1.33083e-006 -2.15337e-007 
5.38424e-005 5.98085 -12.6843 0 3.99975 -0 -3.08132 17.7831 3.53506 -7.99502 35.2862 8.81003 -7.99503 35.2862 8.81003 -0.00418177 -46.0034 16.168 -0.000499845 17.8146 -31.0029 2.41269 -5.14825 -9.20002 61.4806 -46.414 -52.6671 3.11619e-007 2.05424e-006 -7.55045 2.37584 -49.4087 2.07453 -2.8647e-007 2.76229e-007 1.5335e-007 -2.8647e-007 2.76229e-007 1.5335e-007 -2.8647e-007 2.76229e-007 1.5335e-007 -2.8647e-007 2.76229e-007 1.5335e-007 -0.0146386 -8.72706e-005 1.07063e-005 -2.86468e-007 2.76209e-007 1.53386e-007 -2.8647e-007 2.76229e-007 1.5335e-007 -0.0187239 -0.00117164 5.57347e-005 -2.86465e-007 2.76204e-007 1.53398e-007 -2.8647e-007 2.76229e-007 1.5335e-007 -0.0122655 -0.00324462 0.000674168 -2.86462e-007 2.76215e-007 1.53388e-007 -2.8647e-007 2.76229e-007 1.5335e-007 -2.8647e-007 2.76229e-007 1.5335e-007 -2.8647e-007 2.76229e-007 1.5335e-007 5.10134e-006 -10.0022 -2.93619e-008 61.3761 -17.7032 123.559 -0.951879 20.5671 17.0545 -12.8802 29.873 5.76693 6.36111e-015 -4.77083e-015 6.36111e-015 9.54166e-015 -1.59028e-015 3.18055e-015 6.36111e-015 -6.36111e-015 -3.18055e-015 6.36111e-015 -4.77083e-015 6.36111e-015 0.0149973 -9.11102e-005 5.48378e-007 0 0 -0 6.36111e-015 -4.77083e-015 6.36111e-015 0.018971 -0.00118726 -6.2609e-005 2.13507e-007 5.49999e-007 9.5049e-007 6.36111e-015 -4.77083e-015 6.36111e-015 0.012277 -0.0032485 -0.00067244 -1.76556e-031 1.59028e-015 6.36111e-015 6.36111e-015 -4.77083e-015 6.36111e-015 9.54166e-015 -1.59028e-015 3.18055e-015 6.36111e-015 -6.36111e-015 -3.18055e-015 -30.4107 -55.8396 -7.80096 179.892 34.7961 172.085 3.36833 60.854 -7.29649 1.80131e-007 2.52611e-007 7.92851e-007 30.4018 -55.8395 7.79257 -179.892 34.7963 -172.085 -3.36858 60.8533 7.29673 3.29886e-006 1.33083e-006 -2.15337e-007 
5.38424e-005 5.98085 -12.6843 0 3.99975 -0 -3.07762 17.8226 3.54347 -7.99698 35.3648 8.83362 -7.99697 35.3648 8.83362 -0.00424113 -46.0033 15.4354 -0.000605252 17.3398 -31.0028 2.5184 -4.97307 -9.54952 61.7922 -46.6924 -52.2376 5.47087e-006 -4.36283e-006 -6.85473 1.79465 -49.8691 1.44665 -2.8563e-007 2.76498e-007 1.54678e-007 -8.56891e-007 8.29495e-007 4.64035e-007 -2.8563e-007 2.76498e-007 1.54678e-007 -2.8563e-007 2.76498e-007 1.54678e-007 -0.0146627 -9.24032e-005 3.42308e-006 -2.85628e-007 2.76479e-007 1.54714e-007 -2.8563e-007 2.76498e-007 1.54678e-007 -0.0187672 -0.00117247 5.61322e-005 -2.85626e-007 2.76473e-007 1.54727e-007 -2.8563e-007 2.76498e-007 1.54678e-007 -0.0122637 -0.00324599 0.000678296 -2.85623e-007 2.76484e-007 1.54716e-007 -2.8563e-007 2.76498e-007 1.54678e-007 -8.56891e-007 8.29495e-007 4.64035e-007 -2.8563e-007 2.76498e-007 1.54678e-007 -1.81205e-006 -10.0022 2.05391e-006 61.469 -17.8358 123.864 -0.951887 20.5671 17.0545 -12.8802 29.873 5.76694 -3.18055e-015 -9.54166e-015 3.18055e-015 3.18055e-015 -7.95139e-015 9.54166e-015 1.05934e-030 -6.36111e-015 9.54166e-015 -3.18055e-015 -9.54166e-015 3.18055e-015 0.0149379 -9.0353e-005 2.64585e-006 1.76556e-031 -3.18055e-015 3.18055e-015 -3.18055e-015 -9.54166e-015 3.18055e-015 0.0189827 -0.00119086 -6.26478e-005 9.54166e-015 -7.95139e-015 3.18055e-015 -3.18055e-015 -9.54166e-015 3.18055e-015 0.0122557 -0.00324532 -0.000679702 -3.18055e-015 -1.11319e-014 -0 -3.18055e-015 -9.54166e-015 3.18055e-015 3.18055e-015 -7.95139e-015 9.54166e-015 1.05934e-030 -6.36111e-015 9.54166e-015 -30.4107 -55.8396 -7.80096 179.892 34.7961 172.085 3.36833 60.854 -7.29649 1.80131e-007 2.52611e-007 7.92851e-007 30.4018 -55.8395 7.79257 -179.892 34.7963 -172.085 -3.36858 60.8533 7.29673 3.29886e-006 1.33083e-006 -2.15337e-007 
5.38424e-005 5.98085 -12.6843 0 3.99975 -0 -3.0739 17.8623 3.55187 -7.99893 35.4433 8.85721 -7.99893 35.4433 8.85721 -0.00432767 -46.0034 14.7016 -0.000701134 16.8647 -31.0028 2.62513 -4.79863 -9.89915 62.1084 -46.969 -51.8038 -1.11604e-006 5.07992e-006 -6.15951 1.20036 -50.325 0.805843 -2.84776e-007 2.76755e-007 1.5601e-007 -3.18055e-015 7.95139e-016 -3.97569e-015 3.18055e-015 -1.98785e-015 -3.97569e-015 -2.84776e-007 2.76755e-007 1.5601e-007 -0.0146504 -8.68521e-005 -3.77487e-006 6.36111e-015 -1.59028e-015 -3.18055e-015 -2.84776e-007 2.76755e-007 1.5601e-007 -0.0187588 -0.00117407 5.987e-005 6.36111e-015 7.15625e-015 7.15625e-015 -2.84776e-007 2.76755e-007 1.5601e-007 -0.0122464 -0.0032454 0.000690089 3.18055e-015 6.36111e-015 -7.95139e-016 -2.84776e-007 2.76755e-007 1.5601e-007 -3.18055e-015 7.95139e-016 -3.97569e-015 3.18055e-015 -1.98785e-015 -3.97569e-015 6.50106e-007 -10.0022 4.90777e-006 61.5627 -17.968 124.169 -0.95189 20.5671 17.0545 -12.8802 29.873 5.76696 -0 -4.77083e-015 -0 3.18055e-015 3.18055e-015 -3.18055e-015 3.18055e-015 1.59028e-015 6.36111e-015 -0 -4.77083e-015 -0 0.0150257 -9.0613e-005 1.64557e-006 6.36111e-015 4.77083e-015 1.27222e-014 -0 -4.77083e-015 -0 0.0189613 -0.00118666 -6.15156e-005 6.36111e-015 0 -6.36111e-015 -0 -4.77083e-015 -0 0.012295 -0.00325732 -0.000675866 3.18055e-015 0 3.18055e-015 -0 -4.77083e-015 -0 3.18055e-015 3.18055e-015 -3.18055e-015 3.18055e-015 1.59028e-015 6.36111e-015 -30.4107 -55.8396 -7.80096 179.892 34.7961 172.085 3.36833 60.854 -7.29649 1.80131e-007 2.52611e-007 7.92851e-007 30.4018 -55.8395 7.79257 -179.892 34.7963 -172.085 -3.36858 60.8533 7.29673 3.29886e-006 1.33083e-006 -2.15337e-007 
5.38424e-005 5.98085 -12.6843 0 3.99975 -0 -3.07017 17.902 3.56027 -8.00088 35.5219 8.88079 -8.00088 35.5219 8.88079 -0.00432072 -46.0035 13.9669 -0.000800776 16.3893 -31.0027 2.73286 -4.62489 -10.2489 62.4292 -47.244 -51.3656 2.52453e-007 -8.95853e-007 -5.4649 0.592729 -50.7764 0.151854 9.54166e-015 1.98785e-015 7.95139e-016 7.09764e-007 -6.92499e-007 -3.93359e-007 1.41953e-007 -1.385e-007 -7.86719e-008 9.54166e-015 1.98785e-015 7.95139e-016 -0.0146325 -9.29392e-005 5.20259e-006 1.41952e-007 -1.3849e-007 -7.86897e-008 9.54166e-015 1.98785e-015 7.95139e-016 -0.018796 -0.00117662 6.53771e-005 1.41951e-007 -1.38487e-007 -7.8696e-008 9.54166e-015 1.98785e-015 7.95139e-016 -0.0122143 -0.00323402 0.000675624 1.41949e-007 -1.38492e-007 -7.86906e-008 9.54166e-015 1.98785e-015 7.95139e-016 7.09764e-007 -6.92499e-007 -3.93359e-007 1.41953e-007 -1.385e-007 -7.86719e-008 -2.80239e-006 -10.0022 -1.72107e-006 61.6573 -18.0996 124.474 -0.951894 20.5671 17.0545 -12.8803 29.873 5.76694 3.18055e-015 -3.18055e-015 3.18055e-015 3.53113e-031 -1.59028e-015 1.27222e-014 3.53113e-031 -6.36111e-015 3.18055e-015 3.18055e-015 -3.18055e-015 3.18055e-015 0.0149508 -9.08956e-005 4.33142e-007 -6.36111e-015 -1.59028e-014 6.36111e-015 3.18055e-015 -3.18055e-015 3.18055e-015 0.0190343 -0.00119164 -5.34642e-005 1.27222e-014 1.90833e-014 -9.54166e-015 3.18055e-015 -3.18055e-015 3.18055e-015 0.0122589 -0.00324354 -0.000682911 -9.54166e-015 0 6.36111e-015 3.18055e-015 -3.18055e-015 3.18055e-015 3.53113e-031 -1.59028e-015 1.27222e-014 3.53113e-031 -6.36111e-015 3.18055e-015 -30.4107 -55.8396 -7.80096 179.892 34.7961 172.085 3.36833 60.854 -7.29649 1.80131e-007 2.52611e-007 7.92851e-007 30.4018 -55.8395 7.79257 -179.892 34.7963 -172.085 -3.36858 60.8533 7.29673 3.29886e-006 1.33083e-006 -2.15337e-007 
